<svg width="104" height="99" viewBox="0 0 104 99" fill="none" xmlns="http://www.w3.org/2000/svg">
<g id="Frame 1">
<rect width="104" height="99" fill="white"/>
<path id="Red Flame" d="M38.5975 41.0643C38.5975 40.3803 41.5508 31.2839 35.8003 28.5331C29.1751 25.3637 27.344 22.8356 27.3987 18.7846C27.3947 18.9489 23.392 25.3637 25.9988 28.5331C30.0448 33.439 28.3363 37.2375 25.9988 36.8879C22.0713 36.3024 22.5455 31.2101 23.1975 29.9254C21.145 29.7103 18.7714 30.9797 17.5967 32.71C14.0638 37.9292 21.7206 42.9233 18.998 46.635C16.9262 49.4632 13.3855 43.8944 13.3973 43.8503C9.19378 65.6728 39.7233 66.2272 41.4006 48.0282C41.9001 42.5705 46.8412 39.6018 47 39.672C41.7391 37.2596 38.5975 41.2389 38.5975 41.0643ZM28.7996 56.3847C21.4591 56.6538 22.2129 51.1831 23.1975 49.4218C24.4477 47.179 27.6137 46.7358 25.9988 43.8503C26.0196 43.8944 29.4326 44.4043 31.5973 46.635C34.9175 50.0437 34.5397 56.1692 28.7996 56.3847Z" fill="#E11E1E"/>
<path id="Orange Flame" d="M37.0802 42.944C37.0802 42.3931 39.5124 35.0669 34.7766 32.8514C29.3206 30.2988 27.8125 28.2626 27.8576 25C27.8543 25.1323 24.558 30.2988 26.7047 32.8514C30.0368 36.8026 28.6297 39.8619 26.7047 39.5803C23.4702 39.1088 23.8608 35.0075 24.3977 33.9727C22.7075 33.7995 20.7526 34.8219 19.7853 36.2155C16.8758 40.4189 23.1815 44.4412 20.9393 47.4306C19.2331 49.7084 16.3172 45.2233 16.3269 45.1878C12.8652 62.7636 38.0073 63.2101 39.3887 48.5526C39.8001 44.1571 43.8692 41.7661 44 41.8226C39.6674 39.8796 37.0802 43.0846 37.0802 42.944ZM29.0113 55.283C22.9661 55.4997 23.5869 51.0936 24.3977 49.6751C25.4273 47.8687 28.0346 47.5117 26.7047 45.1878C26.7218 45.2233 29.5326 45.634 31.3153 47.4306C34.0496 50.176 33.7385 55.1094 29.0113 55.283Z" fill="#E09E1F"/>
<path id="Yellow Flame" d="M20.4255 43.8885C20.4255 43.37 18.1671 36.4747 22.5646 34.3895C27.6309 31.9871 29.0312 30.0707 28.9894 27C28.9925 27.1245 32.0533 31.9871 30.0599 34.3895C26.9659 38.1083 28.2724 40.9877 30.0599 40.7226C33.0633 40.2788 32.7007 36.4188 32.2021 35.4449C33.7716 35.2819 35.5868 36.2441 36.4851 37.5557C39.1868 41.5119 33.3315 45.2976 35.4135 48.1111C36.9979 50.255 39.7054 46.0337 39.6964 46.0003C42.9109 62.5422 19.5646 62.9625 18.2819 49.1672C17.8999 45.0302 14.1215 42.7799 14 42.8331C18.0231 41.0044 20.4255 44.0208 20.4255 43.8885ZM27.9181 55.5016C33.5315 55.7056 32.955 51.5587 32.2021 50.2236C31.2461 48.5235 28.825 48.1875 30.0599 46.0003C30.044 46.0337 27.434 46.4202 25.7787 48.1111C23.2396 50.695 23.5286 55.3383 27.9181 55.5016Z" fill="#E0C11F"/>
<path id="Small Red Flame" d="M23.2013 47.0831C23.2013 46.7428 21.7246 42.2178 24.5999 40.8494C27.9125 39.2728 28.8281 38.0151 28.8007 36C28.8028 36.0817 30.8041 39.2728 29.5007 40.8494C27.4777 43.2898 28.332 45.1794 29.5007 45.0055C31.4645 44.7142 31.2274 42.1811 30.9014 41.542C31.9276 41.435 33.1145 42.0665 33.7018 42.9272C35.4683 45.5235 31.6398 48.0078 33.0011 49.8542C34.0371 51.2611 35.8074 48.4909 35.8015 48.4689C37.9033 59.3246 22.6384 59.6004 21.7997 50.5472C21.55 47.8323 19.0794 46.3555 19 46.3905C21.6305 45.1904 23.2013 47.1699 23.2013 47.0831ZM28.1003 54.7042C31.7706 54.8381 31.3937 52.1167 30.9014 51.2405C30.2763 50.1248 28.6933 49.9043 29.5007 48.4689C29.4903 48.4909 27.7838 48.7445 26.7015 49.8542C25.0413 51.5499 25.2302 54.597 28.1003 54.7042Z" fill="#E02A1F"/>
<path id="Top Flame" d="M31.4013 22.9625C30.5443 22.0481 30 20.95 30 20.1769C30 18.7275 31.1905 17.3343 32.8022 16C32.9637 17.1606 32.104 18.9012 32.8022 20.1769C33.3438 21.1211 34.2035 22.1894 34.2035 22.9625C34.2035 23.9984 33.8157 24.9425 32.8022 25.7471C32.6488 25.3596 32.3805 24.0893 31.4013 22.9625Z" fill="#E66F1A"/>
</g>
</svg>
